<svg width="24" height="336" fill="none" xmlns="http://www.w3.org/2000/svg"><defs><symbol id="icon"><path fill-rule="evenodd" clip-rule="evenodd" d="M16.2923 16.9994C14.882 18.2445 13.0292 19 11 19C6.58172 19 3 15.4183 3 11C3 6.58172 6.58172 3 11 3C15.4183 3 19 6.58172 19 11C19 13.0292 18.2445 14.8819 16.9994 16.2923L21.3536 20.6465L20.6465 21.3536L16.2923 16.9994ZM18 11C18 14.866 14.866 18 11 18C7.13401 18 4 14.866 4 11C4 7.13401 7.13401 4 11 4C14.866 4 18 7.13401 18 11Z" fill="var(--icon-color, currentColor)"/></symbol></defs><view viewBox="0 0 24 24" id="light-primary"/><use x="0" y="0" href="#icon" style="--icon-color:#141414"/><view viewBox="0 24 24 24" id="light-secondary"/><use x="0" y="24" href="#icon" style="--icon-color:#707070"/><view viewBox="0 48 24 24" id="light-inverted"/><use x="0" y="48" href="#icon" style="--icon-color:#ffffff"/><view viewBox="0 72 24 24" id="light-alert"/><use x="0" y="72" href="#icon" style="--icon-color:#bf2012"/><view viewBox="0 96 24 24" id="light-action"/><use x="0" y="96" href="#icon" style="--icon-color:#1c6bba"/><view viewBox="0 120 24 24" id="light-actionSecondary"/><use x="0" y="120" href="#icon" style="--icon-color:#1c6bba"/><view viewBox="0 144 24 24" id="light-positive"/><use x="0" y="144" href="#icon" style="--icon-color:#058a22"/><view viewBox="0 168 24 24" id="dark-primary"/><use x="0" y="168" href="#icon" style="--icon-color:#ffffff"/><view viewBox="0 192 24 24" id="dark-secondary"/><use x="0" y="192" href="#icon" style="--icon-color:#a3a3a3"/><view viewBox="0 216 24 24" id="dark-inverted"/><use x="0" y="216" href="#icon" style="--icon-color:#000000"/><view viewBox="0 240 24 24" id="dark-alert"/><use x="0" y="240" href="#icon" style="--icon-color:#ea2c1a"/><view viewBox="0 264 24 24" id="dark-action"/><use x="0" y="264" href="#icon" style="--icon-color:#1f78d1"/><view viewBox="0 288 24 24" id="dark-actionSecondary"/><use x="0" y="288" href="#icon" style="--icon-color:#ffffff"/><view viewBox="0 312 24 24" id="dark-positive"/><use x="0" y="312" href="#icon" style="--icon-color:#08b42e"/></svg>